<svg
   xmlns="http://www.w3.org/2000/svg"
   xmlns:xlink="http://www.w3.org/1999/xlink"
   version="1.0"
   x="0.0000000"
   y="0.0000000"
   width="450.00000"
   height="300.00000"
   id="svg11552">
  <defs
     id="defs11554" />
  <rect
     width="337.50000"
     height="225.00000"
     x="125.00000"
     y="452.36218"
     transform="matrix(1.333333,0.000000,0.000000,1.333333,-166.6667,-603.1494)"
     style="fill:#ffffff;fill-opacity:1.0000000;fill-rule:evenodd;stroke:none;stroke-width:1.0000000pt;stroke-linecap:butt;stroke-linejoin:miter;stroke-opacity:1.0000000"
     id="rect11561" />
  <rect
     width="75.000000"
     height="225.00000"
     x="256.25000"
     y="452.36218"
     transform="matrix(1.333333,0.000000,0.000000,1.333333,-166.6667,-603.1494)"
     style="fill:#e8112d;fill-opacity:1.0000000;fill-rule:evenodd;stroke:none;stroke-width:1.0000000pt;stroke-linecap:butt;stroke-linejoin:miter;stroke-opacity:1.0000000"
     id="rect12183" />
  <rect
     width="337.50000"
     height="75.000000"
     x="125.00000"
     y="527.36218"
     transform="matrix(1.333333,0.000000,0.000000,1.333333,-166.6667,-603.1494)"
     style="fill:#0051ba;fill-opacity:1.0000000;fill-rule:evenodd;stroke:none;stroke-width:1.0000000pt;stroke-linecap:butt;stroke-linejoin:miter;stroke-opacity:1.0000000"
     id="rect12805" />
  <path
     d="M 266.10390,422.46778 L 272.91544,422.46778 L 275.01952,415.98847 L 277.12361,422.46778 L 283.93515,422.46778 L 278.42529,426.47166 L 280.52938,432.95097 L 275.01952,428.94710 L 269.50967,432.95097 L 271.61376,426.47166 L 266.10390,422.46778 z "
     transform="matrix(1.333333,0.000000,0.000000,1.333333,-141.6927,-450.4845)"
     style="fill:#ffffff;fill-opacity:1.0000000;fill-rule:evenodd;stroke:none;stroke-width:1.0000000pt;stroke-linecap:butt;stroke-linejoin:miter;stroke-opacity:1.0000000"
     id="path2203" />
  <path
     d="M 266.10390,422.46778 L 272.91544,422.46778 L 275.01952,415.98847 L 277.12361,422.46778 L 283.93515,422.46778 L 278.42529,426.47166 L 280.52938,432.95097 L 275.01952,428.94710 L 269.50967,432.95097 L 271.61376,426.47166 L 266.10390,422.46778 z "
     transform="matrix(1.333333,0.000000,0.000000,1.333333,-208.3594,-422.8678)"
     style="fill:#ffffff;fill-opacity:1.0000000;fill-rule:evenodd;stroke:none;stroke-width:1.0000000pt;stroke-linecap:butt;stroke-linejoin:miter;stroke-opacity:1.0000000"
     id="path15933" />
  <path
     d="M 266.10390,422.46778 L 272.91544,422.46778 L 275.01952,415.98847 L 277.12361,422.46778 L 283.93515,422.46778 L 278.42529,426.47166 L 280.52938,432.95097 L 275.01952,428.94710 L 269.50967,432.95097 L 271.61376,426.47166 L 266.10390,422.46778 z "
     transform="matrix(1.333333,0.000000,0.000000,1.333333,-169.3094,-383.8179)"
     style="fill:#ffffff;fill-opacity:1.0000000;fill-rule:evenodd;stroke:none;stroke-width:1.0000000pt;stroke-linecap:butt;stroke-linejoin:miter;stroke-opacity:1.0000000"
     id="path15936" />
  <path
     d="M 266.10390,422.46778 L 272.91544,422.46778 L 275.01952,415.98847 L 277.12361,422.46778 L 283.93515,422.46778 L 278.42529,426.47166 L 280.52938,432.95097 L 275.01952,428.94710 L 269.50967,432.95097 L 271.61376,426.47166 L 266.10390,422.46778 z "
     transform="matrix(1.333333,0.000000,0.000000,1.333333,-75.02608,-422.8678)"
     style="fill:#ffffff;fill-opacity:1.0000000;fill-rule:evenodd;stroke:none;stroke-width:1.0000000pt;stroke-linecap:butt;stroke-linejoin:miter;stroke-opacity:1.0000000"
     id="path15939" />
  <path
     d="M 266.10390,422.46778 L 272.91544,422.46778 L 275.01952,415.98847 L 277.12361,422.46778 L 283.93515,422.46778 L 278.42529,426.47166 L 280.52938,432.95097 L 275.01952,428.94710 L 269.50967,432.95097 L 271.61376,426.47166 L 266.10390,422.46778 z "
     transform="matrix(1.333333,0.000000,0.000000,1.333333,-114.0761,-383.8179)"
     style="fill:#ffffff;fill-opacity:1.0000000;fill-rule:evenodd;stroke:none;stroke-width:1.0000000pt;stroke-linecap:butt;stroke-linejoin:miter;stroke-opacity:1.0000000"
     id="path15942" />
</svg>
