<svg width="16" height="16" viewBox="0 0 16 16" fill="none" xmlns="http://www.w3.org/2000/svg">
<path fill-rule="evenodd" clip-rule="evenodd" d="M14.6695 6.2113C14.866 6.96631 14.3083 7.64965 13.606 7.64965H2.39243C1.69015 7.64965 1.13238 6.96631 1.32895 6.2113C1.68494 4.84392 2.37204 3.6025 3.32552 2.63182C4.60444 1.32983 6.27079 0.608398 7.9992 0.608398C9.72761 0.608398 11.394 1.32983 12.6729 2.63182C13.6264 3.6025 14.3135 4.84392 14.6695 6.2113Z" fill="#696970" stroke="#696970" stroke-linecap="round" stroke-linejoin="round"/>
<path d="M12 12.7962C12 13.3267 11.7893 13.8354 11.4142 14.2104C11.0391 14.5855 10.5304 14.7962 10 14.7962C9.46957 14.7962 8.96086 14.5855 8.58579 14.2104C8.21071 13.8354 8 13.3267 8 12.7962V7.46289" stroke="#696970" stroke-width="2" stroke-linecap="round" stroke-linejoin="round"/>
</svg>
